# xmcd
# 
# Track frame offsets:
#     183
#     14673
#     30415
#     51485
#     79748
#     89450
#     102428
#     124908
#     138130
#     154000
#     168905
#     179358
# 
# Disc length: 2571
# 
# Revision: 4
# Processed by: cddbd v1.5.2PL0 Copyright (c) Steve Scherf et al.
# Submitted via: BonkEnc v1.0.5
# 
DISCID=980a090c
DTITLE=Alan Loveday - The Four Seasons
DYEAR=1970
DGENRE=Concerto
TTITLE0='Spring' I Allegro
TTITLE1='Spring' II Largo
TTITLE2='Spring' III Allegro
TTITLE3='Summer' I Allegro non molto
TTITLE4='Summer' II Adagio - Presto
TTITLE5='Summer' III Presto
TTITLE6='Autumn' I Allegro
TTITLE7='Autumn' II Adagio molto
TTITLE8='Autumn' III Allegro
TTITLE9='Winter' I Allegro non molto
TTITLE10='Winter' II Largo
TTITLE11='Winter' III Allegro
EXTD=
EXTT0=
EXTT1=
EXTT2=
EXTT3=
EXTT4=
EXTT5=
EXTT6=
EXTT7=
EXTT8=
EXTT9=
EXTT10=
EXTT11=
PLAYORDER=
